<?xml version="1.0" encoding="UTF-8"?>
<!-- Generator: Adobe Illustrator 21.1.0, SVG Export Plug-In . SVG Version: 6.00 Build 0)  -->
<svg version="1.1" id="Layer_1" xmlns="http://www.w3.org/2000/svg" xmlns:xlink="http://www.w3.org/1999/xlink" x="0px" y="0px" viewBox="0 0 56.69 56.69" style="enable-background:new 0 0 56.69 56.69;" xml:space="preserve">
<style type="text/css">
	.st0{fill:#ff7604;}
	.st1{fill:#FFFFFF;}
</style>
<title>Metro de Medellín - Línea B</title>
<path class="st0" d="M56.6875,28.3358c0,15.6612-12.6906,28.3518-28.3477,28.3518C12.6946,56.6876,0,43.9969,0,28.3358  C0,12.7146,12.6946,0,28.3398,0C43.9969,0,56.6875,12.7146,56.6875,28.3358"/>
<path class="st1" d="M19.0882,13.6433h10.2623c3.8031,0,9.4778,1.103,9.4778,7.5465c0,3.5003-2.3495,5.9416-5.842,6.5628v0.0836  c3.9743,0.3821,6.7221,3.0781,6.7221,6.7021c0,7.3989-6.6384,8.5061-10.3579,8.5061H19.0882V13.6433z M24.9818,25.5302h2.3973  c2.4889,0,5.5513-0.5534,5.5513-3.588c0-3.3967-2.9907-3.6556-5.6747-3.6556h-2.2739  C24.9818,18.2866,24.9818,25.5302,24.9818,25.5302z M24.9818,38.4128h2.7916c2.7159,0,6.053-0.6689,6.053-4.0897  c0-3.8427-3.1101-4.4122-6.053-4.4122h-2.7916V38.4128z"/>
</svg>