<svg width="56.69" height="56.69" xmlns="http://www.w3.org/2000/svg" xml:space="preserve" version="1.1">
 <title>Metro de Medellín - Línea B</title>

 <g>
  <title>Layer 1</title>
  <path id="svg_1" fill="#ffffff" d="m56.6875,28.3358c0,15.6612 -12.6906,28.3518 -28.3477,28.3518c-15.6452,0 -28.3398,-12.6907 -28.3398,-28.3518c0,-15.6212 12.6946,-28.3358 28.3398,-28.3358c15.6571,0 28.3477,12.7146 28.3477,28.3358" class="st0"/>
  <path id="svg_2" fill="#ff7604" d="m19.0882,13.6433l10.2623,0c3.8031,0 9.4778,1.103 9.4778,7.5465c0,3.5003 -2.3495,5.9416 -5.842,6.5628l0,0.0836c3.9743,0.3821 6.7221,3.0781 6.7221,6.7021c0,7.3989 -6.6384,8.5061 -10.3579,8.5061l-10.2623,0l0,-29.4011zm5.8936,11.8869l2.3973,0c2.4889,0 5.5513,-0.5534 5.5513,-3.588c0,-3.3967 -2.9907,-3.6556 -5.6747,-3.6556l-2.2739,0c0,0 0,7.2436 0,7.2436zm0,12.8826l2.7916,0c2.7159,0 6.053,-0.6689 6.053,-4.0897c0,-3.8427 -3.1101,-4.4122 -6.053,-4.4122l-2.7916,0l0,8.5019z" class="st1"/>
 </g>
</svg>